<svg xmlns="http://www.w3.org/2000/svg" xmlns:xlink="http://www.w3.org/1999/xlink" viewBox="0 0 1811.99 1303.59"><defs><style>.cls-1{fill:url(#linear-gradient);}.cls-2{fill:#fff;}.cls-3{fill:#ec2227;}</style><linearGradient id="linear-gradient" y1="651.8" x2="1811.99" y2="651.8" gradientUnits="userSpaceOnUse"><stop offset="0.04" stop-color="#603a17"/><stop offset="0.52" stop-color="#fbb03b"/><stop offset="1" stop-color="#412312"/></linearGradient></defs><g id="Layer_2" data-name="Layer 2"><g id="Layer_2-2" data-name="Layer 2"><rect class="cls-1" width="1811.99" height="1303.59"/><path class="cls-2" d="M928.77,834.62q0,12.84-14.77,38.61T865.53,944.4l-8.67,11.71-29.2,40.22a3,3,0,0,1-1.7,1.15l-11.38,2.8a2.93,2.93,0,0,1-3.67-2.93l.37-15.56q0-58.5-6.54-98.09a3,3,0,0,0-5.59-.81Q763,956.45,730.24,996.44a3.13,3.13,0,0,1-1.63,1l-12.56,2.91a3,3,0,0,1-3.61-3q.63-13.92.61-27.72,0-71.9-7.78-99.84t-27.68-27.92c-7.56,0-20.25-3.52-25,14.32-.15.52-.13.91-.24,1.46-4.82,24.2-12.49,42.12-21.92,53.68Q608.22,939.63,548.8,959a397.68,397.68,0,0,1-123.91,19.38q-147.21,0-235.17-82.3t-88-219.5q0-181.17,140-318.55T566.42,220.61q126.74,0,212.53,79.93t85.8,197.93q0,100.6-58.58,170.7Q783.73,696,757.55,712.56c-1.4.91-2.8,1.8-4.2,2.63-.24.15-.47.28-.71.41Q733.31,726.88,715,726.88q-22.49,0-51.92-26.29V672.86q10.37,7.21,25.74,7.2A92.72,92.72,0,0,0,709,677.88q39.5-8.73,71-52.47,39.4-54.64,39.42-126.51,0-98.85-72.51-165.71T567.29,266.34q-164.19,0-282.86,119.1T165.76,668.74q0,119.34,71.87,192.93t187.26,73.61q113.42,0,225.15-91.45a2.2,2.2,0,0,0,.31-.3q21.9-24.45,42.73-24.47,49.35,0,49.35,129.51l-.14,6.5a3,3,0,0,0,5.46,1.7Q796.08,885.16,804,826.51a2.89,2.89,0,0,1,2.21-2.47l10.24-2.41a3,3,0,0,1,3.54,2q19.68,64.73,20.92,128.75a3,3,0,0,0,5.37,1.69,366.32,366.32,0,0,0,34.52-56.88q16.37-33.53,16.38-50.86c0-5.74-1.69-12.21-5.08-19.47a3,3,0,0,1,2.5-4.21l29.24-1.57a3,3,0,0,1,2.95,2A37.6,37.6,0,0,1,928.77,834.62Z"/><path class="cls-2" d="M1071.29,819.06q-41.25,0-76.23,39.24t-35,85.46q0,24.57,14,41t35.07,16.45q43.33,0,78.33-38.6t35-86.59q0-24.87-14.44-40.92T1071.29,819.06Zm-2,137.62q-18.06,30.59-41.81,30.58-32.26,0-32.26-52.16,0-39.48,18.38-71t41.32-31.54q32.43,0,32.42,53.12Q1087.34,926.12,1069.29,956.68Z"/><path class="cls-2" d="M1263.17,844.52Q1237.09,870,1218,910.15h-2.08l7.7-38.65a131.66,131.66,0,0,0,2.89-26q0-26.46-23.11-26.46-27.08,0-63.78,39.32a3,3,0,0,0-.75,1.46l-.58,2.84a3,3,0,0,0,5.08,2.59Q1169.75,837,1184.77,837q9.63,0,9.63,13.79a104.88,104.88,0,0,1-2.41,20.52l-15.57,78.41-10.94,45.51a3,3,0,0,0,3,3.65l27.77-1.57A3,3,0,0,0,1199,995l11.17-55.81a3.21,3.21,0,0,1,.34-.89q51.83-91.44,83.06-91.45,5.79,0,13.81,4.84a3,3,0,0,0,3.87-.8l17.63-24a3,3,0,0,0-1.15-4.47,41,41,0,0,0-16.83-3.38Q1289.26,819.06,1263.17,844.52Z"/><path class="cls-2" d="M1383.32,983.89q-9.48,0-9.48-10.11,0-5.62,3.69-24.08l25.23-126.79q10.27-51.84,23.14-70.46t38.4-18.62q12.79,0,30.23,7.65a3,3,0,0,0,3.34-.64l17-17.68a3,3,0,0,0-1.54-5,120.22,120.22,0,0,0-23.76-2.18q-45.94,0-78,32.34t-43.62,90.44l-22,110.74q-3.37,17-3.37,27.13,0,24.55,22.8,24.55,27.08,0,64.58-38a3,3,0,0,0,.81-1.53l1-5.36a3,3,0,0,0-4.9-2.76c-.78.7-1.43,1.3-2,1.78Q1394.09,983.9,1383.32,983.89Z"/><path class="cls-2" d="M1710.41,716q-38.37,0-70.14,25-18.63,14.61-28.89,31.38-9.93,16.22-19.11,46.45a3,3,0,0,1-2.84,2.11q-31.92.15-49,4.89-17.67,4.89-35.31,19.18a169.5,169.5,0,0,0-42.94,53.12q-16.61,31.62-16.61,60.51,0,42.54,34,42.53,22.14,0,47.5-25.36,24.83-24.81,43-64.08a3,3,0,0,1,2.67-1.72h1L1566,949.7q-3.86,19.42-3.86,27.29,0,24.24,23.28,24.23,27.69,0,62.33-37.09a3,3,0,0,0,.75-1.45l.78-3.81a3,3,0,0,0-5-2.62q-26.64,27.64-40.84,27.64-9.46,0-9.47-10.43,0-5.15,3.86-23.76l25.19-127.11q10.27-51.36,23.28-70.06t38.68-18.7q12.66,0,30.53,7.54a3,3,0,0,0,3.3-.66l16.92-17.54a3,3,0,0,0-1.53-5A120.61,120.61,0,0,0,1710.41,716ZM1579.52,881.7a2.73,2.73,0,0,1-.29.83,328.78,328.78,0,0,1-45.3,65.89q-25.9,29.05-39.72,29.05-14.93,0-14.92-25.2,0-34.83,20.7-78.48,17.49-36.91,46.55-36.92a95.93,95.93,0,0,1,37.92,8,3,3,0,0,1,1.73,3.31Z"/><path class="cls-3" d="M791.94,661.13q-30.83,28.35-56.4,28.36-11.14,0-26.55-11.61-14.81-11.14-33.5-33-3.91-4.5-7.91-9.45-43.87-54.06-89.75-140.57,33-22.74,65.31-49.06,21.21-17.26,42.12-36.06,52.77-47.49,52.78-59,0-20.87-35.59-39.18Q691,350.51,656,391.61q-43.35,50.88-122.8,105l6.43-32.37,19.27-97.14,10.28-51.67.37-1.91c-1.44.18-2.87.35-4.28.5q-59,7-96.08,7-22.57,0-38.34-8.08a56.33,56.33,0,0,1-10.3-6.72c.52,3.57,1.13,6.93,1.87,10.13h0q3.75,16.43,11.45,26.42a38,38,0,0,0,16.86,12.77,45.69,45.69,0,0,0,16.7,2.89q8.25,0,17.06-.58,11.57-.72,24.12-2.46l-3.78,19-19.21,96.75L476,519.87l-5.54,27.89L465,574.92l-11.21,56.49-5.91,29.74c-1.63,8.13-2.89,14.76-3.76,19.93A89,89,0,0,0,442.62,693q0,10.53,13.06,10.54a71.34,71.34,0,0,0,11.64-1q16-2.5,34.77-11.84A42.22,42.22,0,0,1,498.91,678c-.06-.78-.08-1.56-.08-2.32q0-7.28,4.78-30.85l16.51-82.91,1.11-5.61,8.69-43.62c4,7.06,7.93,13.95,11.82,20.66q70.88,122.21,121.32,167.23,29.43,26.29,51.92,26.29,18.33,0,37.66-11.28c.24-.13.47-.26.71-.41a129.84,129.84,0,0,0,12.52-8.52q26.32-20.17,26.33-39Z"/><path class="cls-2" d="M566.6,658.69c-.55-.84-1.12-1.65-1.69-2.45a106.11,106.11,0,0,0-12.68-14.61,132.69,132.69,0,0,0-22.48-17.37,155.07,155.07,0,0,0-14.39-7.94A220.87,220.87,0,0,0,476,601.78q30.61-18.84,50-38.73,33.3-34.14,33.31-71.17A53.35,53.35,0,0,0,547,457.12a76.53,76.53,0,0,0-19.19-16.34c-1-.62-2-1.24-3.07-1.81a112,112,0,0,0-18.89-8.61,158.87,158.87,0,0,0-36.54-7.9,236.38,236.38,0,0,0-24.07-1.19q-18.45,0-36.26,1.6-70.65,6.31-131.76,37.68-76.51,39.32-76.51,86.57,0,13.44,7.14,28.57,71.82-88.4,159.24-110.19A242.55,242.55,0,0,1,426,458.36a175.39,175.39,0,0,1,25.67,1.71q50.18,7.6,50.17,48,0,42-58.52,84.9c-7.7-.54-13.84-.83-18.41-.83q-26.65,0-38.61,10.16a44.14,44.14,0,0,0-9.66,12.49q-5.75,10.48-10.27,27.09c3.37.79,6.49,1.38,9.34,1.79a61.58,61.58,0,0,0,8.52.69,103.66,103.66,0,0,0,39-7.16q47,9.81,68.78,27.47c.93.72,1.83,1.5,2.69,2.26a60.64,60.64,0,0,1,8.68,9.64q11.67,16,12.65,39.32c.08,1.45.1,2.93.1,4.43q0,42-35.61,72.48c-1,.83-2,1.67-3,2.5q-38.61,31.21-92.75,31.23-65.94,0-65.94-34.66,0-8.7,5-35.25c.33-1.83.69-3.74,1.07-5.71l36-180.7q9.11-43.43,9.09-48.39,0-19.52-17-19.53a60.88,60.88,0,0,0-12,1.5q-14.56,3.07-38.8,12.25a27,27,0,0,1,6.59,17.58q0,9.89-4.69,33.23L265.24,761.71Q257,803.21,257,814.48,257,862,332.57,862q101.58,0,173.32-45.65c.57-.36,1.12-.72,1.69-1.07a212.31,212.31,0,0,0,32.9-25.81q39.39-38.29,39.37-87.4A77,77,0,0,0,566.6,658.69Z"/></g></g></svg>