<svg xmlns="http://www.w3.org/2000/svg" viewBox="0 0 1634.73 798.43"><defs><style>.cls-1{fill:#fff;}.cls-2{fill:#ec2227;}</style></defs><g id="Layer_2" data-name="Layer 2"><g id="Layer_1-2" data-name="Layer 1"><path class="cls-1" d="M827,614q0,12.84-14.77,38.61T763.77,723.8l-8.67,11.71-29.2,40.21a3,3,0,0,1-1.69,1.15l-11.39,2.81a2.94,2.94,0,0,1-3.67-2.94l.37-15.55q0-58.5-6.54-98.1a3,3,0,0,0-5.58-.8q-36.18,73.56-68.92,113.54a3,3,0,0,1-1.63,1l-12.55,2.91a3,3,0,0,1-3.61-3c.41-9.27.61-18.53.61-27.72q0-71.89-7.78-99.83t-27.68-27.92c-7.56,0-20.25-3.52-25,14.32-.15.52-.13.91-.24,1.45-4.82,24.2-12.49,42.13-21.92,53.69Q506.48,719,447,738.4a398,398,0,0,1-123.9,19.38q-147.21,0-235.17-82.3T0,456Q0,274.81,140,137.42T464.66,0Q591.41,0,677.19,79.93T763,277.86q0,100.61-58.57,170.71Q682,475.42,655.8,492q-2.1,1.38-4.2,2.63c-.24.15-.48.28-.72.42q-19.32,11.26-37.65,11.27-22.49,0-51.93-26.29V452.26q10.37,7.2,25.75,7.19a93.24,93.24,0,0,0,20.18-2.17q39.51-8.73,71-52.47,39.4-54.66,39.41-126.52,0-98.84-72.5-165.7T465.53,45.73q-164.17,0-282.85,119.11T64,448.13q0,119.34,71.87,192.93t187.26,73.61q113.42,0,225.15-91.45a1.42,1.42,0,0,0,.3-.3q21.9-24.43,42.74-24.46,49.33,0,49.34,129.51l-.13,6.49a3,3,0,0,0,5.45,1.7q48.33-71.6,56.23-130.25a2.88,2.88,0,0,1,2.22-2.48L714.67,601a3,3,0,0,1,3.54,2q19.69,64.73,20.93,128.75a3,3,0,0,0,5.36,1.7A366.86,366.86,0,0,0,779,676.61q16.35-33.54,16.38-50.86,0-8.61-5.09-19.47a3,3,0,0,1,2.5-4.22l29.25-1.56a3,3,0,0,1,2.95,2A37.49,37.49,0,0,1,827,614Z"/><path class="cls-1" d="M969.54,616.27q-41.25,0-76.24,39.24t-35,85.47q0,24.56,14.05,41t35.07,16.45q43.34,0,78.32-38.6t35-86.59q0-24.87-14.45-40.92T969.54,616.27Zm-2,137.63q-18,30.57-41.81,30.57-32.25,0-32.26-52.16,0-39.48,18.38-71t41.33-31.54q32.42,0,32.42,53.12Q985.59,723.33,967.53,753.9Z"/><path class="cls-1" d="M1161.42,623.92q-26.09,25.47-45.18,65.63h-2.09l7.71-38.66a132.27,132.27,0,0,0,2.88-26q0-26.46-23.11-26.46-27.08,0-63.78,39.33a3.06,3.06,0,0,0-.75,1.45l-.57,2.84a3,3,0,0,0,5.08,2.59q26.39-28.23,41.4-28.23,9.63,0,9.63,13.79a105.64,105.64,0,0,1-2.4,20.52l-15.57,78.41-11,45.51a3,3,0,0,0,3,3.65l27.76-1.57a3,3,0,0,0,2.74-2.38l11.17-55.8a3.14,3.14,0,0,1,.33-.9q51.84-91.44,83.06-91.44,5.79,0,13.81,4.83a3,3,0,0,0,3.88-.8l17.63-24a3,3,0,0,0-1.16-4.46,40.86,40.86,0,0,0-16.82-3.39Q1187.49,598.45,1161.42,623.92Z"/><path class="cls-1" d="M1281.56,763.28q-9.48,0-9.48-10.11,0-5.61,3.7-24.07L1301,602.3q10.29-51.84,23.14-70.46t38.4-18.61q12.81,0,30.23,7.65a3,3,0,0,0,3.35-.65l17-17.68a3,3,0,0,0-1.53-5,121,121,0,0,0-23.77-2.18q-45.93,0-78,32.34t-43.61,90.44l-22,110.75q-3.37,17-3.37,27.12,0,24.56,22.8,24.56,27.08,0,64.57-38a3,3,0,0,0,.81-1.53l1-5.36a3,3,0,0,0-4.89-2.76l-2,1.77Q1292.32,763.29,1281.56,763.28Z"/><path class="cls-1" d="M1608.65,495.41q-38.36,0-70.14,25-18.62,14.61-28.89,31.38-9.93,16.2-19.11,46.44a3,3,0,0,1-2.83,2.11q-31.93.17-49,4.89-17.65,4.9-35.31,19.18a169.37,169.37,0,0,0-42.93,53.13q-16.62,31.62-16.61,60.51,0,42.52,34,42.53,22.15,0,47.51-25.36,24.81-24.82,43-64.09a3,3,0,0,1,2.67-1.72h1l-7.86,39.65q-3.85,19.42-3.85,27.28,0,24.24,23.27,24.24,27.7,0,62.34-37.1a3.06,3.06,0,0,0,.75-1.45l.77-3.8a3,3,0,0,0-5-2.63q-26.64,27.65-40.84,27.64-9.48,0-9.47-10.43,0-5.13,3.85-23.75L1521.18,602q10.27-51.36,23.27-70.06t38.68-18.69q12.66,0,30.54,7.53a3,3,0,0,0,3.3-.65l16.92-17.55a3,3,0,0,0-1.53-5A121.41,121.41,0,0,0,1608.65,495.41ZM1477.77,661.09a3.41,3.41,0,0,1-.29.83,328.5,328.5,0,0,1-45.3,65.89q-25.92,29.06-39.72,29.05-14.93,0-14.93-25.2,0-34.81,20.7-78.48,17.51-36.91,46.55-36.91a96,96,0,0,1,37.93,8,3,3,0,0,1,1.73,3.31Z"/><path class="cls-2" d="M690.19,440.53q-30.84,28.35-56.41,28.35-11.14,0-26.55-11.6-14.79-11.14-33.5-33c-2.61-3-5.23-6.15-7.91-9.45Q522,360.78,476.07,274.28q33-22.75,65.31-49.06,21.23-17.28,42.13-36.07,52.75-47.47,52.77-59,0-20.85-35.59-39.17-11.4,38.94-46.45,80.06-43.33,50.87-122.8,105l6.44-32.38,19.27-97.14,10.27-51.66.37-1.91-4.28.5q-59,7-96.07,7-22.59,0-38.35-8.08a57.16,57.16,0,0,1-10.3-6.71c.52,3.56,1.13,6.93,1.87,10.12h0q3.75,16.42,11.45,26.42A38,38,0,0,0,349,135a46,46,0,0,0,16.71,2.89q8.25,0,17.06-.59,11.57-.72,24.11-2.46l-3.78,19-19.2,96.75-9.67,48.64-5.54,27.9-5.41,27.16L352.06,410.8l-5.91,29.75q-2.44,12.18-3.76,19.92a89.12,89.12,0,0,0-1.52,11.93q0,10.53,13.05,10.54a72.69,72.69,0,0,0,11.65-1c10.67-1.67,22.25-5.65,34.76-11.84a42.26,42.26,0,0,1-3.17-12.71c-.06-.78-.09-1.57-.09-2.33q0-7.26,4.78-30.85l16.52-82.91,1.1-5.6,8.69-43.63q6,10.59,11.82,20.66Q510.87,435,561.3,480q29.43,26.31,51.93,26.29,18.32,0,37.65-11.27c.24-.14.48-.27.72-.42a128.36,128.36,0,0,0,12.51-8.51q26.34-20.18,26.34-39Z"/><path class="cls-1" d="M464.85,438.08c-.55-.83-1.12-1.64-1.69-2.45A107.48,107.48,0,0,0,450.48,421,133.57,133.57,0,0,0,428,403.66a157.68,157.68,0,0,0-14.4-8,220.29,220.29,0,0,0-39.37-14.53q30.61-18.84,50-38.73,33.3-34.15,33.3-71.18a53.38,53.38,0,0,0-12.27-34.75A76.43,76.43,0,0,0,426,220.17c-1-.61-2-1.23-3.07-1.8a110.79,110.79,0,0,0-18.88-8.62,159.11,159.11,0,0,0-36.54-7.89,233.88,233.88,0,0,0-24.08-1.19q-18.45,0-36.25,1.59-70.65,6.31-131.77,37.68-76.5,39.33-76.5,86.57,0,13.46,7.13,28.57Q177.9,266.7,265.31,244.89a242.43,242.43,0,0,1,58.92-7.14,175.41,175.41,0,0,1,25.67,1.72q50.18,7.59,50.17,48,0,42-58.52,84.9-11.57-.82-18.41-.83-26.65,0-38.61,10.15a43.79,43.79,0,0,0-9.66,12.49c-3.83,7-7.26,16-10.28,27.1,3.38.78,6.5,1.38,9.35,1.78a61.47,61.47,0,0,0,8.52.69,103.7,103.7,0,0,0,39-7.16q47,9.81,68.77,27.48c.93.71,1.84,1.5,2.69,2.26a60.64,60.64,0,0,1,8.69,9.63q11.65,16,12.65,39.33c.07,1.45.1,2.92.1,4.42q0,42-35.62,72.48c-1,.84-2,1.67-3,2.5Q337.15,605.95,283,606q-65.94,0-65.94-34.66,0-8.71,5-35.26c.34-1.83.69-3.73,1.07-5.71l36-180.7q9.09-43.42,9.08-48.38,0-19.53-17-19.53a61.7,61.7,0,0,0-12,1.49q-14.55,3.07-38.8,12.26a27,27,0,0,1,6.59,17.58q0,9.88-4.68,33.23L163.49,541.11q-8.25,41.51-8.26,52.76,0,47.53,75.58,47.53,101.6,0,173.33-45.65l1.69-1.07a212.19,212.19,0,0,0,32.9-25.81q39.39-38.28,39.37-87.4A77.09,77.09,0,0,0,464.85,438.08Z"/></g></g></svg>